<svg width="50" height="50" viewBox="0 0 50 50" fill="none" xmlns="http://www.w3.org/2000/svg">
<path d="M48.292 13.531L35.5538 0.294727C35.3725 0.106445 35.1223 0 34.8609 0H15.8756C13.7509 0 12.0223 1.72793 12.0223 3.85176V18.8702H5.89072C4.30107 18.8702 3.00781 20.1631 3.00781 21.7523V33.0555C3.00781 34.6446 4.30107 35.9375 5.89072 35.9375H12.0223V46.155C12.0223 48.2751 13.7509 50 15.8756 50H44.7074C46.8321 50 48.5607 48.2761 48.5607 46.1571V14.1978C48.5607 13.9491 48.4644 13.7102 48.292 13.531ZM35.0992 2.5958L45.5561 13.4615H35.0992V2.5958ZM5.89072 34.0145C5.36143 34.0145 4.93096 33.5843 4.93096 33.0555V21.7523C4.93096 21.2235 5.36152 20.7933 5.89072 20.7933H30.2933C30.8226 20.7933 31.253 21.2235 31.253 21.7523V33.0555C31.253 33.5843 30.8225 34.0145 30.2933 34.0145H5.89072ZM46.6376 46.1571C46.6376 47.2157 45.7717 48.077 44.7073 48.077H15.8756C14.8112 48.077 13.9453 47.2148 13.9453 46.1551V35.9375H30.2933C31.8829 35.9375 33.1762 34.6446 33.1762 33.0555V21.7523C33.1762 20.1631 31.8829 18.8702 30.2933 18.8702H13.9453V3.85176C13.9453 2.78818 14.8112 1.92305 15.8756 1.92305H33.1761V14.423C33.1761 14.9541 33.6066 15.3846 34.1376 15.3846H46.6376V46.1571Z" fill="white"/>
<rect x="1.5625" y="18.75" width="32.8125" height="17.1875" fill="white"/>
<path d="M12.938 24.4041C12.6187 23.9891 12.2225 23.7195 11.7492 23.5956C11.4412 23.513 10.7802 23.4717 9.76601 23.4717H7.08984V31.7311H8.75752V28.6155H9.84492C10.5999 28.6155 11.1765 28.5761 11.5746 28.4972C11.8676 28.4333 12.1558 28.3028 12.4394 28.1056C12.723 27.9084 12.9568 27.637 13.1409 27.2915C13.325 26.946 13.417 26.5196 13.417 26.0126C13.4169 25.3553 13.2572 24.8191 12.938 24.4041ZM11.5098 26.6774C11.384 26.8615 11.2102 26.9967 10.9886 27.0831C10.7669 27.1695 10.3275 27.2127 9.67021 27.2127H8.75752V24.8689H9.56318C10.1642 24.8689 10.5642 24.8877 10.7632 24.9253C11.0336 24.9741 11.2571 25.0962 11.4336 25.2915C11.6101 25.4868 11.6984 25.7348 11.6984 26.0352C11.6985 26.2793 11.6355 26.4934 11.5098 26.6774Z" fill="#1F1F1F"/>
<path d="M21.4351 25.7281C21.2548 25.2004 20.9918 24.7544 20.6463 24.39C20.3008 24.0257 19.8856 23.7722 19.4012 23.6294C19.0406 23.5242 18.5166 23.4717 17.8293 23.4717H14.7812V31.7311H17.9194C18.5354 31.7311 19.0274 31.6729 19.3955 31.5564C19.8876 31.3987 20.2782 31.179 20.5674 30.8972C20.9505 30.5254 21.2453 30.039 21.452 29.4381C21.621 28.946 21.7055 28.36 21.7055 27.6803C21.7055 26.9065 21.6153 26.2559 21.4351 25.7281ZM19.8124 29.1198C19.6997 29.4898 19.5542 29.7556 19.3758 29.917C19.1974 30.0785 18.9729 30.193 18.7025 30.2606C18.496 30.3133 18.1598 30.3395 17.694 30.3395H16.4489V24.8689H17.1982C17.878 24.8689 18.3345 24.8952 18.5673 24.9478C18.879 25.0154 19.1363 25.145 19.3392 25.3366C19.542 25.5282 19.6997 25.7948 19.8124 26.1366C19.9251 26.4784 19.9814 26.9685 19.9814 27.6071C19.9814 28.2456 19.9251 28.7498 19.8124 29.1198Z" fill="#1F1F1F"/>
<path d="M28.7911 24.8689V23.4717H23.1289V31.7311H24.7966V28.2212H28.2446V26.8239H24.7966V24.8689H28.7911Z" fill="#1F1F1F"/>
</svg>
