<svg width="32" height="32" viewBox="0 0 32 32" fill="none" xmlns="http://www.w3.org/2000/svg">
<path d="M30.9057 8.65981L22.7533 0.188625C22.6372 0.068125 22.4771 0 22.3098 0H10.1592C8.79939 0 7.69308 1.10588 7.69308 2.46513V12.0769H3.76889C2.75152 12.0769 1.92383 12.9044 1.92383 13.9215V21.1555C1.92383 22.1726 2.75152 23 3.76889 23H7.69308V29.5392C7.69308 30.8961 8.79939 32 10.1592 32H28.6116C29.9714 32 31.0777 30.8967 31.0777 29.5406V9.08656C31.0777 8.92744 31.016 8.7745 30.9057 8.65981ZM22.4623 1.66131L29.1548 8.61537H22.4623V1.66131ZM3.76889 21.7693C3.43014 21.7693 3.15464 21.4939 3.15464 21.1555V13.9215C3.15464 13.5831 3.4302 13.3077 3.76889 13.3077H19.3865C19.7253 13.3077 20.0008 13.5831 20.0008 13.9215V21.1555C20.0008 21.4939 19.7252 21.7693 19.3865 21.7693H3.76889ZM29.8469 29.5406C29.8469 30.2181 29.2927 30.7693 28.6115 30.7693H10.1592C9.47802 30.7693 8.92383 30.2175 8.92383 29.5392V23H19.3865C20.4039 23 21.2316 22.1726 21.2316 21.1555V13.9215C21.2316 12.9044 20.4039 12.0769 19.3865 12.0769H8.92383V2.46513C8.92383 1.78444 9.47802 1.23075 10.1592 1.23075H21.2315V9.23075C21.2315 9.57063 21.5071 9.84612 21.8469 9.84612H29.8469V29.5406Z" fill="#E41F25"/>
<rect x="1" y="12" width="21" height="11" fill="#E41F25"/>
<path d="M8.27992 15.6182C8.0756 15.3526 7.82198 15.1801 7.5191 15.1008C7.32198 15.0479 6.89892 15.0215 6.24986 15.0215H4.53711V20.3075H5.60442V18.3135H6.30036C6.78354 18.3135 7.15254 18.2883 7.40735 18.2378C7.59485 18.1969 7.77935 18.1134 7.96085 17.9872C8.14235 17.861 8.29198 17.6873 8.40979 17.4662C8.5276 17.245 8.58648 16.9722 8.58648 16.6477C8.58641 16.227 8.48423 15.8839 8.27992 15.6182ZM7.36585 17.0732C7.28535 17.191 7.17417 17.2775 7.03229 17.3328C6.89042 17.3881 6.60923 17.4157 6.18854 17.4157H5.60442V15.9157H6.12004C6.50467 15.9157 6.76067 15.9277 6.88804 15.9518C7.0611 15.983 7.20417 16.0612 7.3171 16.1862C7.4301 16.3112 7.4866 16.4699 7.4866 16.6621C7.48667 16.8184 7.44635 16.9554 7.36585 17.0732Z" fill="white"/>
<path d="M13.7174 16.4656C13.602 16.1279 13.4337 15.8424 13.2126 15.6092C12.9915 15.376 12.7258 15.2138 12.4157 15.1224C12.185 15.0551 11.8496 15.0215 11.4097 15.0215H9.45898V20.3075H11.4674C11.8617 20.3075 12.1765 20.2703 12.4121 20.1957C12.727 20.0948 12.977 19.9542 13.1621 19.7738C13.4073 19.5358 13.596 19.2246 13.7282 18.84C13.8364 18.525 13.8905 18.15 13.8905 17.715C13.8905 17.2198 13.8328 16.8034 13.7174 16.4656ZM12.6789 18.6363C12.6068 18.8731 12.5137 19.0432 12.3995 19.1465C12.2853 19.2498 12.1417 19.3232 11.9686 19.3664C11.8364 19.4001 11.6212 19.4169 11.3232 19.4169H10.5263V15.9157H11.0059C11.4409 15.9157 11.733 15.9325 11.882 15.9662C12.0815 16.0095 12.2462 16.0924 12.376 16.215C12.5059 16.3377 12.6068 16.5083 12.6789 16.727C12.751 16.9458 12.7871 17.2595 12.7871 17.6682C12.7871 18.0768 12.751 18.3995 12.6789 18.6363Z" fill="white"/>
<path d="M18.4265 15.9157V15.0215H14.8027V20.3075H15.87V18.0612H18.0768V17.1669H15.87V15.9157H18.4265Z" fill="white"/>
</svg>
