<svg width="24" height="24" viewBox="0 0 24 24" fill="none" xmlns="http://www.w3.org/2000/svg">
<path fill-rule="evenodd" clip-rule="evenodd" d="M19.3171 17.6371C22.8943 14.0599 22.8943 8.2601 19.3171 4.6829C15.7399 1.1057 9.9401 1.1057 6.3629 4.6829C3.09315 7.95265 2.81212 13.0794 5.51982 16.6683L1.90566 20.2825C0.962854 21.2253 2.37707 22.6395 3.31988 21.6967L6.89084 18.1257C10.4897 21.2061 15.911 21.0432 19.3171 17.6371ZM7.77712 6.09712C10.5733 3.30096 15.1067 3.30096 17.9029 6.09712C20.699 8.89327 20.699 13.4267 17.9029 16.2229C15.1067 19.019 10.5733 19.019 7.77712 16.2229C4.98096 13.4267 4.98096 8.89327 7.77712 6.09712Z" fill="#B7B8BD"/>
</svg>
