<svg width="236" height="40" viewBox="0 0 236 40" fill="none" xmlns="http://www.w3.org/2000/svg">
<g clip-path="url(#clip0)">
<path d="M39.8637 31.9998L31.8917 39.998L2.40125 40L0 37.5898V7.99984L7.97323 0H37.4629L39.8637 2.40898V31.9998Z" fill="#ED1C24"/>
<path d="M37.4631 0L28.4969 8.99649V22.128L21.1522 12.001H5.66979V15.1832H10.2336V27.3221L0.000976562 37.5898V40L2.40142 39.998L13.6728 28.6885V15.1832H18.235V27.9986H21.6303V17.8712L28.9755 27.9986H31.8919V10.408L39.8643 2.40898L39.8639 0H37.4631Z" fill="white"/>
<path d="M52.6201 15.9704H47.8369V12.085H61.8237V15.9704H57.0409V28.0826H52.6205V15.9704H52.6201Z" fill="black"/>
<path d="M64.1475 12.0859H76.971V15.8552H68.5208V18.2804H76.1734V21.7779H68.5208V24.3135H77.0855V28.084H64.1475V12.0859Z" fill="black"/>
<path d="M84.3611 19.9479L79.1206 12.0859H84.2015L87.0255 16.5878L89.8744 12.0859H94.8384L89.6011 19.9023L95.0678 28.0836H89.9873L86.9335 23.262L83.8596 28.0836H78.8936L84.3611 19.9479Z" fill="black"/>
<path d="M97.1572 12.0859H101.576V18.0739H107.249V12.0859H111.668V28.0836H107.249V22.0037H101.576V28.0836H97.1572V12.0859Z" fill="black"/>
<path d="M114.322 20.0846C114.322 15.4896 118.013 11.7646 122.934 11.7646C127.853 11.7646 131.497 15.4448 131.497 20.0846C131.497 24.6788 127.807 28.4042 122.888 28.4042C117.966 28.4046 114.322 24.7232 114.322 20.0846ZM126.987 20.0846C126.987 17.7756 125.324 15.7634 122.888 15.7634C120.471 15.7634 118.855 17.7292 118.855 20.0846C118.855 22.3936 120.519 24.4022 122.933 24.4022C125.369 24.4026 126.987 22.4388 126.987 20.0846Z" fill="black"/>
<path d="M134.171 12.0859H138.592V18.0739H144.263V12.0859H148.683V28.0836H144.263V22.0037H138.592V28.0836H134.171V12.0859Z" fill="black"/>
<path d="M152.121 12.0859H156.496V21.0897L162.67 12.0859H166.791V28.0836H162.418V19.0794L156.244 28.0836H152.121V12.0859Z" fill="black"/>
<path d="M170.232 12.0859H174.65V18.5775L180.14 12.0859H185.38L179.344 18.9645L185.584 28.084H180.278L176.269 22.1428L174.65 23.947V28.0844H170.232V12.0859Z" fill="black"/>
<path d="M185.618 20.0846C185.618 15.4896 189.307 11.7646 194.227 11.7646C199.147 11.7646 202.793 15.4448 202.793 20.0846C202.793 24.6788 199.101 28.4042 194.182 28.4042C189.261 28.4046 185.618 24.7232 185.618 20.0846ZM198.28 20.0846C198.28 17.7756 196.62 15.7634 194.183 15.7634C191.766 15.7634 190.151 17.7292 190.151 20.0846C190.151 22.3936 191.812 24.4022 194.227 24.4022C196.664 24.4026 198.28 22.4388 198.28 20.0846Z" fill="black"/>
<path d="M222.537 12.0859H226.955V17.1123H229.37C233.198 17.1123 236 18.9424 236 22.5512C236 26.0048 233.495 28.084 229.599 28.084H222.537V12.0859ZM229.257 24.3591C230.714 24.3591 231.58 23.6958 231.58 22.4391C231.58 21.3195 230.714 20.5877 229.279 20.5877H226.955V24.3591H229.257Z" fill="black"/>
<path d="M206.705 12.0859V19.104C206.705 20.7627 206.538 23.162 205.447 24.0107C204.934 24.4082 204.089 24.713 203.554 24.713V28.4848H203.973C205.501 28.4848 207.213 27.8683 207.871 27.4494C210.536 25.7516 210.866 22.5222 210.866 18.8742V15.971H214.68V28.0832H219.099V12.0859H206.705Z" fill="black"/>
</g>
<defs>
<clipPath id="clip0">
<rect width="236" height="40" fill="white"/>
</clipPath>
</defs>
</svg>
