<svg width="22" height="16" viewBox="0 0 22 16" fill="none" xmlns="http://www.w3.org/2000/svg">
<path d="M21.3923 2.80261C21.2689 2.34479 21.0277 1.92728 20.6928 1.59162C20.358 1.25597 19.941 1.01387 19.4834 0.88944C17.787 0.423607 10.9999 0.416024 10.9999 0.416024C10.9999 0.416024 4.21387 0.40844 2.51629 0.85369C2.05904 0.983849 1.64293 1.22937 1.3079 1.56667C0.972871 1.90397 0.730178 2.32174 0.603119 2.77986C0.155702 4.47636 0.151369 7.99503 0.151369 7.99503C0.151369 7.99503 0.147035 11.531 0.591202 13.2102C0.840369 14.1386 1.57162 14.872 2.50112 15.1223C4.21495 15.5881 10.9836 15.5957 10.9836 15.5957C10.9836 15.5957 17.7707 15.6033 19.4672 15.1591C19.9249 15.0349 20.3423 14.7934 20.678 14.4584C21.0137 14.1234 21.2562 13.7066 21.3815 13.2492C21.83 11.5538 21.8332 8.03619 21.8332 8.03619C21.8332 8.03619 21.8549 4.49911 21.3923 2.80261ZM8.82887 11.2548L8.83429 4.75477L14.4752 8.01019L8.82887 11.2548Z" fill="#B3B5BC"/>
</svg>
