<svg width="57" height="12" viewBox="0 0 57 12" fill="none" xmlns="http://www.w3.org/2000/svg">
<path d="M33.0051 8.57923H26.8372L25.5088 11.6567H24.291L29.3518 0.136719H30.5063L35.5672 11.6567H34.3336L33.0051 8.57923ZM32.5781 7.5918L29.9212 1.40392L27.2642 7.5918H32.5781Z" fill="#D0D5E0"/>
<path d="M51.663 1.18998H47.7725V0.136719H56.7238V1.18998H52.8333V11.6567H51.663V1.18998Z" fill="#D0D5E0"/>
<path d="M44.9561 11.6567L42.4257 7.95386C42.141 7.98678 41.8458 8.00323 41.54 8.00323H38.5668V11.6567H37.3965V0.136719H41.54C42.9528 0.136719 44.0599 0.487804 44.8612 1.18998C45.6625 1.89215 46.0631 2.85763 46.0631 4.08643C46.0631 4.98609 45.8417 5.7486 45.3989 6.37398C44.9666 6.98838 44.3446 7.43272 43.5327 7.707L46.2371 11.6567H44.9561ZM41.5084 6.96643C42.6049 6.96643 43.4431 6.71409 44.023 6.2094C44.6029 5.70472 44.8928 4.99706 44.8928 4.08643C44.8928 3.15386 44.6029 2.44072 44.023 1.947C43.4431 1.44232 42.6049 1.18998 41.5084 1.18998H38.5668V6.96643H41.5084Z" fill="#D0D5E0"/>
<path d="M19.6078 11.6567L16.9351 7.65763L14.3098 11.6567H11.3682L15.4643 5.79798L11.5738 0.136719H14.4837L17.0299 3.87249L19.5287 0.136719H22.2963L18.4375 5.69923L22.5652 11.6567H19.6078Z" fill="#8E9199"/>
<path d="M5.24479 11.8542C3.66329 11.8542 2.42974 11.3989 1.54409 10.4883C0.668996 9.57763 0.231445 8.27752 0.231445 6.58792V0.136719H2.79348V6.48918C2.79348 8.5518 3.61585 9.58312 5.26061 9.58312C6.0619 9.58312 6.67342 9.33626 7.09515 8.84255C7.51689 8.33786 7.72775 7.5534 7.72775 6.48918V0.136719H10.2582V6.58792C10.2582 8.27752 9.81534 9.57763 8.9297 10.4883C8.0546 11.3989 6.8263 11.8542 5.24479 11.8542Z" fill="#8E9199"/>
</svg>
