<svg width="54" height="44" viewBox="0 0 54 44" fill="none" xmlns="http://www.w3.org/2000/svg">
<path d="M53.3496 12.0281L48.59 1.11651C48.3145 0.48517 47.6907 0.0771484 47.0007 0.0771484H7.00025C6.31016 0.0771484 5.68633 0.48517 5.41097 1.11651L0.650982 12.0285C0.302632 12.8273 0.443356 13.7719 1.0095 14.4349L25.6716 43.3154C26.0014 43.7017 26.4821 43.9232 26.9907 43.9233C27.499 43.9233 27.98 43.7019 28.3099 43.3159L39.7737 29.9012C40.0556 29.5715 40.0161 29.0761 39.6856 28.7948C39.3553 28.5135 38.8588 28.5528 38.5769 28.8827L28.8743 40.2366L39.1704 13.8078H51.4598L37.7065 29.9012C37.4246 30.231 37.464 30.7264 37.7946 31.0077C38.125 31.289 38.6214 31.2496 38.9033 30.9198L52.9907 14.4351C53.5574 13.7721 53.6983 12.8272 53.3496 12.0281ZM51.7257 12.2379H40.1777L47.405 2.33273L51.7257 12.2379ZM18.2915 22.4725L25.2984 40.4583L2.54059 13.8077H14.9158L18.6499 23.3923C18.7709 23.7029 19.0681 23.893 19.3831 23.8929C19.4777 23.8929 19.5742 23.8756 19.6679 23.8393C20.0726 23.6822 20.2732 23.2274 20.1158 22.8234L16.6034 13.8076H37.4825L27.043 40.6045L19.7575 21.9036C19.6001 21.4997 19.1443 21.2995 18.7395 21.4566C18.3348 21.6137 18.1341 22.0685 18.2915 22.4725ZM30.0196 1.64686L31.8188 4.31716C31.9706 4.54247 32.2191 4.66417 32.4721 4.66417C32.623 4.66417 32.7756 4.62085 32.9102 4.53054C33.2707 4.2887 33.3664 3.80104 33.124 3.44126L31.915 1.64686H45.9596L38.6578 11.6543L32.9883 3.23971C32.746 2.87993 32.2573 2.78439 31.8968 3.02633C31.5364 3.26817 31.4407 3.75583 31.683 4.11561L37.1555 12.2379H16.9304L24.0665 1.64686H30.0196ZM15.4283 11.6543L8.12647 1.64686H22.1711L15.4283 11.6543ZM6.62778 2.25968L13.9083 12.2379H2.27518L6.62778 2.25968Z" fill="#1F1F1F"/>
<path d="M15.4619 13.3467L26.0694 40.3958C26.4014 41.2423 27.5994 41.2423 27.9313 40.3958L38.5388 13.3467" stroke="#E41F25" stroke-width="1.3" stroke-linecap="round"/>
</svg>
