<svg width="55" height="46" viewBox="0 0 55 46" fill="none" xmlns="http://www.w3.org/2000/svg">
<path d="M18.5714 44.5857H1.7959V1.29297H18.5714V18.0003M18.5714 44.5857V24.9515M18.5714 44.5857H31.6734M18.5714 18.0003L36.5714 12.1466V17.7564M18.5714 18.0003V24.9515M36.5714 24.9515H18.5714M36.5714 24.9515V17.7564M36.5714 24.9515H54.0816M36.5714 17.7564L54.0816 12.1466V24.9515M54.0816 24.9515V44.5857H39.3877M31.6734 44.5857V36.6588H39.3877V44.5857M31.6734 44.5857H39.3877" stroke="#292D47" stroke-width="1.6" stroke-miterlimit="10" stroke-linecap="round" stroke-linejoin="round"/>
<path d="M31.6162 44.586V36.6592H39.3305V44.586" stroke="#E41F25" stroke-width="1.6" stroke-miterlimit="10" stroke-linecap="round" stroke-linejoin="round"/>
<path d="M18.5713 18.0158L36.5713 12.1621V17.7719L54.0815 12.1621V24.967" stroke="#E41F25" stroke-width="1.6" stroke-miterlimit="10" stroke-linecap="round" stroke-linejoin="round"/>
</svg>
