<svg width="60" height="60" viewBox="0 0 60 60" fill="none" xmlns="http://www.w3.org/2000/svg">
<path d="M33.4619 48.4619V40.385H46.1542V33.4619L57.1158 44.4235L46.1542 55.385V48.4619H33.4619Z" stroke="#E41F25" stroke-width="1.6" stroke-miterlimit="10" stroke-linecap="round" stroke-linejoin="round"/>
<path d="M43.3566 29.4234C43.3566 15.0853 37.1187 3.46191 29.4239 3.46191C21.7291 3.46191 15.4912 15.0853 15.4912 29.4234C15.4912 43.7616 21.7291 55.385 29.4239 55.385" stroke="#292D47" stroke-width="1.6" stroke-miterlimit="10" stroke-linecap="round" stroke-linejoin="round"/>
<path d="M5.625 39.8081H28.2692M5.625 19.0388H53.2212M29.4231 3.46191C29.4231 23.7391 29.4231 13.7616 29.4231 34.0388" stroke="#292D47" stroke-width="1.6" stroke-miterlimit="10" stroke-linecap="round" stroke-linejoin="round"/>
<path d="M55.385 29.4234C55.385 15.0853 43.7616 3.46191 29.4235 3.46191C15.0853 3.46191 3.46191 15.0853 3.46191 29.4234C3.46191 43.7616 15.0853 55.385 29.4235 55.385" stroke="#292D47" stroke-width="1.6" stroke-miterlimit="10" stroke-linecap="round" stroke-linejoin="round"/>
</svg>
