<svg width="60" height="60" viewBox="0 0 60 60" fill="none" xmlns="http://www.w3.org/2000/svg">
<path d="M27.1152 12.6921C27.8656 9.91307 29.2062 7.55914 34.0416 7.55914C34.0416 7.55914 47.3809 3.2643 47.3809 16.9909C47.3809 28.5281 49.9654 29.7913 52.7166 32.5703C49.2187 33.4004 45.6384 33.8242 42.0452 33.8335V35.1809C42.0452 36.5283 41.7951 39.2231 48.4647 40.5705C55.1344 41.9179 55.3845 47.3075 55.3845 47.3075H37.8767" stroke="#E41F25" stroke-width="1.6" stroke-miterlimit="10" stroke-linecap="round" stroke-linejoin="round"/>
<path d="M34.9089 46.5933C28.1956 45.6386 28.1956 43.1216 28.1956 41.733V40.9519C29.9051 39.3145 31.1277 37.207 31.7201 34.8765C33.7341 34.8765 34.2376 30.4502 34.2376 29.8427C34.2376 29.2351 34.0697 26.7182 33.1467 26.4578C36.5033 14.3071 26.4334 9.09967 17.7061 15.3486C14.0138 15.3486 12.839 20.9032 14.1817 26.4578C13.2586 26.4578 13.0907 29.0615 13.0907 29.7559C13.0907 30.4502 13.5942 34.7897 15.6082 34.7897C16.2796 37.3067 18.1257 39.3896 19.7201 40.8651V41.733C19.7201 43.1216 19.2166 45.7254 12.4194 46.5933C5.62223 47.4612 4.61523 54.2308 4.61523 54.2308H41.5383C41.5383 54.2308 41.6222 47.548 34.9089 46.5933Z" stroke="#292D47" stroke-width="1.6" stroke-miterlimit="10" stroke-linecap="round" stroke-linejoin="round"/>
</svg>
