<svg width="60" height="60" viewBox="0 0 60 60" fill="none" xmlns="http://www.w3.org/2000/svg">
<path d="M50.5307 26.6246C52.1983 32.003 51.9522 37.793 49.8343 43.0105C47.7164 48.2281 43.8573 52.5514 38.9128 55.246C33.9684 57.9405 28.2435 58.84 22.7109 57.7916C17.1783 56.7433 12.1794 53.8117 8.56347 49.495C4.94756 45.1783 2.93774 39.7429 2.87551 34.1122C2.81328 28.4815 4.70249 23.0029 8.22211 18.6074C11.7417 14.2119 16.6747 11.1705 22.1827 10.0001C27.6908 8.82973 33.4341 9.60249 38.437 12.1871M36.4682 11.2496C31.0307 13.8746 27.187 14.1558 27.187 17.5308C27.187 20.9058 32.062 18.9371 32.062 22.4058C32.062 25.8746 28.312 28.3121 25.5932 26.5308C22.8745 24.7496 19.1245 23.7183 15.8432 28.2183C12.562 32.7183 14.7182 37.9683 17.062 37.8746C19.4057 37.7808 21.562 35.6246 22.5932 38.4371C23.6245 41.2496 23.812 41.2496 24.8432 41.8121C25.8745 42.3746 25.9682 43.5933 25.5932 45.1871C25.2182 46.7808 27.2807 51.6558 28.8745 51.6558C30.4682 51.6558 31.9682 50.9996 32.1557 48.3746C32.3432 45.7496 34.312 45.6558 35.2495 44.9058C36.187 44.1558 34.5932 41.4371 36.2807 39.6558C37.9682 37.8746 41.6245 34.5933 38.6245 33.7496C35.6245 32.9058 35.812 32.3433 35.3432 31.0308C34.8745 29.7183 33.6557 28.4058 36.187 28.3121C37.479 28.3164 38.7587 28.0614 39.9503 27.5622C41.142 27.063 42.2213 26.3297 43.1245 25.4058L43.7807 24.7496" stroke="#292D47" stroke-width="1.6" stroke-miterlimit="10" stroke-linecap="round" stroke-linejoin="round"/>
<path d="M47.8125 1.875C45.3261 1.875 42.9415 2.86272 41.1834 4.62087C39.4252 6.37903 38.4375 8.7636 38.4375 11.25C38.4375 19.6875 47.8125 30 47.8125 30C47.8125 30 57.1875 19.6875 57.1875 11.25C57.1875 10.0189 56.945 8.79977 56.4739 7.66234C56.0027 6.52492 55.3122 5.49142 54.4416 4.62087C53.5711 3.75032 52.5376 3.05977 51.4002 2.58863C50.2627 2.11749 49.0436 1.875 47.8125 1.875V1.875Z" stroke="#E41F25" stroke-width="1.6" stroke-miterlimit="10" stroke-linecap="round" stroke-linejoin="round"/>
<path d="M47.8125 13.125C48.848 13.125 49.6875 12.2855 49.6875 11.25C49.6875 10.2145 48.848 9.375 47.8125 9.375C46.777 9.375 45.9375 10.2145 45.9375 11.25C45.9375 12.2855 46.777 13.125 47.8125 13.125Z" stroke="#E41F25" stroke-width="1.6" stroke-miterlimit="10" stroke-linecap="round" stroke-linejoin="round"/>
</svg>
